<?xml version="1.0" encoding="UTF-8" standalone="no"?>
<!DOCTYPE svg PUBLIC "-//W3C//DTD SVG 1.1//EN" "http://www.w3.org/Graphics/SVG/1.1/DTD/svg11.dtd">
<svg width="100%" height="100%" viewBox="0 0 15 15" version="1.1" xmlns="http://www.w3.org/2000/svg" xmlns:xlink="http://www.w3.org/1999/xlink" xml:space="preserve" xmlns:serif="http://www.serif.com/" style="fill-rule:evenodd;clip-rule:evenodd;stroke-linecap:round;stroke-linejoin:round;stroke-miterlimit:1.5;">
    <g transform="matrix(1,0,0,1,-1254.39,-1559.84)">
        <g transform="matrix(1,0,0,1,0,1101.51)">
            <g transform="matrix(1,0,0,1,22.3939,-5.68736)">
                <g transform="matrix(6,0,0,6,-6195,-9118.05)">
                    <path d="M1239,1597.34L1238.34,1597.34C1238.15,1597.34 1238,1597.49 1238,1597.68L1238,1599.01C1238,1599.19 1238.15,1599.34 1238.33,1599.34L1239.67,1599.34C1239.85,1599.34 1240,1599.19 1240,1599.01C1240,1598.72 1240,1598.34 1240,1598.34" style="fill:none;stroke:black;stroke-width:0.33px;"/>
                </g>
                <g transform="matrix(1,0,0,1,0,-1126.34)">
                    <path d="M1239,1598.34L1245.98,1591.36L1242,1591.36L1245.98,1591.36L1245.98,1595.34" style="fill:none;stroke:black;stroke-width:2px;"/>
                </g>
            </g>
        </g>
    </g>
</svg>
